<svg width="64" height="64" viewBox="0 0 64 64" fill="none" xmlns="http://www.w3.org/2000/svg">
  <!-- Background Circle -->
  <circle cx="32" cy="32" r="30" fill="url(#gradient)" stroke="#FF6B35" stroke-width="2"/>
  
  <!-- Car Icon -->
  <path d="M16 36h4l2-4h20l2 4h4c2 0 4 2 4 4v8c0 2-2 4-4 4h-2c0-2-2-4-4-4s-4 2-4 4H26c0-2-2-4-4-4s-4 2-4 4h-2c-2 0-4-2-4-4v-8c0-2 2-4 4-4z" fill="white"/>
  <path d="M20 28h24l-2-4H22l-2 4z" fill="white"/>
  <circle cx="22" cy="44" r="2" fill="white"/>
  <circle cx="42" cy="44" r="2" fill="white"/>
  
  <!-- AI Circuit Pattern -->
  <path d="M32 8v6m-8 8h6m10 0h6m-12 12v6" stroke="white" stroke-width="1.5" stroke-linecap="round"/>
  <circle cx="32" cy="14" r="1.5" fill="white"/>
  <circle cx="24" cy="22" r="1.5" fill="white"/>
  <circle cx="40" cy="22" r="1.5" fill="white"/>
  <circle cx="32" cy="50" r="1.5" fill="white"/>
  
  <defs>
    <linearGradient id="gradient" x1="0%" y1="0%" x2="100%" y2="100%">
      <stop offset="0%" style="stop-color:#FF6B35;stop-opacity:1" />
      <stop offset="100%" style="stop-color:#F7931E;stop-opacity:1" />
    </linearGradient>
  </defs>
</svg>